{"title":"Prince of Persia [2010]-480p-BRip-SmartGuy","uid":6606606,"size":336745430,"categoryP":"video","categoryS":"movies","magnet":"?xt=urn:btih:813cc8d3c13d61c44fbc7817328fd252fee62430&amp;dn=Prince+of+Persia+%5B2010%5D-480p-BRip-SmartGuy&amp;tr=udp%3A%2F%2Ftracker.openbittorrent.com%3A80&amp;tr=udp%3A%2F%2Fopen.demonii.com%3A1337&amp;tr=udp%3A%2F%2Ftracker.coppersurfer.tk%3A6969&amp;tr=udp%3A%2F%2Fexodus.desync.com%3A6969","seeders":0,"leechers":1,"uploader":"SmartGuyTorrents","files":13,"time":1313422836,"description":"PLOT:\n\nA young fugitive prince and princess must stop a villain who unknowingly threatens to destroy the world with a special dagger that enables the magic sand inside to reverse time.\n\nINFO:\n\nGeneral\n\nRelease name                     : Prince of Persia [2010]-480p-BRip-SmartGuy\nFormat                           : MPEG-4\nFormat profile                   : Base Media / Version 2\nFile size                        : 321 MiB\nDuration                         : 1h 55mn\nOverall bit rate                 : 387 Kbps\n\nVideo\nID                               : 1\nFormat                           : MP4\nFormat/Info                      : Advanced Video Codec\nFormat profile                   : &lt;a class=&quot;__cf_email__&quot; href=&quot;/cdn-cgi/l/email-protection&quot; data-cfemail=&quot;86cbe7efe8c6cab5a8b6&quot;&gt;[email&amp;#160;protected]&lt;/a&gt;&lt;script cf-hash='f9e31' type=&quot;text/javascript&quot;&gt;\n/* &lt;![CDATA[ */!function(){try{var t=&quot;currentScript&quot;in document?document.currentScript:function(){for(var t=document.getElementsByTagName(&quot;script&quot;),e=t.length;e--;)if(t[e].getAttribute(&quot;cf-hash&quot;))return t[e]}();if(t&amp;&amp;t.previousSibling){var e,r,n,i,c=t.previousSibling,a=c.getAttribute(&quot;data-cfemail&quot;);if(a){for(e=&quot;&quot;,r=parseInt(a.substr(0,2),16),n=2;a.length-n;n+=2)i=parseInt(a.substr(n,2),16)^r,e+=String.fromCharCode(i);e=document.createTextNode(e),c.parentNode.replaceChild(e,c)}}}catch(u){}}();/* ]]&gt; */&lt;/script&gt;\nDuration                         : 1h 55mn\nBit rate mode                    : Variable\nBit rate                         : 318 Kbps\nWidth                            : 720 pixels\nHeight                           : 304 pixels\nDisplay aspect ratio             : 2.40:1\nFrame rate mode                  : Variable\nFrame rate                       : 23.976 fps\nMinimum frame rate               : 23.810 fps\nMaximum frame rate               : 24.390 fps\nColor space                      : YUV\nChroma subsampling               : 4:2:0\nBit depth                        : 8 bits\nScan type                        : Progressive\nBits/(Pixel*Frame)               : 0.061\nStream size                      : 263 MiB (82%)\n\nAudio\nID                               : 2\nFormat                           : AAC\nFormat/Info                      : Advanced Audio Codec\nFormat profile                   : LC\nCodec ID                         : 40\nDuration                         : 1h 55mn\nBit rate mode                    : Variable\nBit rate                         : 64.1 Kbps\nMaximum bit rate                 : 95.7 Kbps\nChannel(s)                       : 2 channels\nChannel positions                : Front: L R\nSampling rate                    : 48.0 KHz\nCompression mode                 : Lossy\nStream size                      : 53.1 MiB (17%)\nLanguage                         : English\n\n\nSCREENSHOTS:\n\n &lt;a href=&quot;\nhttp://leetleech.org/images/40057168900527933791.jpg&quot; rel=&quot;nofollow&quot; target=&quot;_NEW&quot;&gt;\nhttp://leetleech.org/images/40057168900527933791.jpg&lt;/a&gt; &lt;a href=&quot;\nhttp://leetleech.org/images/97581591677739982044.jpg&quot; rel=&quot;nofollow&quot; target=&quot;_NEW&quot;&gt;\nhttp://leetleech.org/images/97581591677739982044.jpg&lt;/a&gt; &lt;a href=&quot;\nhttp://leetleech.org/images/62197019302510715039.jpg&quot; rel=&quot;nofollow&quot; target=&quot;_NEW&quot;&gt;\nhttp://leetleech.org/images/62197019302510715039.jpg&lt;/a&gt; &lt;a href=&quot;\nhttp://leetleech.org/images/22831567011214539419.jpg&quot; rel=&quot;nofollow&quot; target=&quot;_NEW&quot;&gt;\nhttp://leetleech.org/images/22831567011214539419.jpg&lt;/a&gt; &lt;a href=&quot;\nhttp://leetleech.org/images/00683551713875522929.jpg&quot; rel=&quot;nofollow&quot; target=&quot;_NEW&quot;&gt;\nhttp://leetleech.org/images/00683551713875522929.jpg&lt;/a&gt; &lt;a href=&quot;\nhttp://leetleech.org/images/13954142996638968854.jpg&quot; rel=&quot;nofollow&quot; target=&quot;_NEW&quot;&gt;\nhttp://leetleech.org/images/13954142996638968854.jpg&lt;/a&gt;\n\n\nTHUMBNAILS:\n &lt;a href=&quot;\nhttp://leetleech.org/images/44117584540225622492.jpg&quot; rel=&quot;nofollow&quot; target=&quot;_NEW&quot;&gt;\nhttp://leetleech.org/images/44117584540225622492.jpg&lt;/a&gt;\n\n\nPLEASE SEED AFTER DOWNLOADING! SEEDING IS HELPING!!\n\nJoin me on facebook\n","torrent":{"xt":"urn:btih:813cc8d3c13d61c44fbc7817328fd252fee62430","amp;dn":"Prince+of+Persia+%5B2010%5D-480p-BRip-SmartGuy","amp;tr":["udp%3A%2F%2Ftracker.openbittorrent.com%3A80","udp%3A%2F%2Fopen.demonii.com%3A1337","udp%3A%2F%2Ftracker.coppersurfer.tk%3A6969","udp%3A%2F%2Fexodus.desync.com%3A6969"],"infoHash":"813cc8d3c13d61c44fbc7817328fd252fee62430","infoHashBuffer":{"type":"Buffer","data":[129,60,200,211,193,61,97,196,79,188,120,23,50,143,210,82,254,230,36,48]},"announce":[],"urlList":[]}}